<svg width="145" height="60" viewBox="0 0 145 60" fill="none" xmlns="http://www.w3.org/2000/svg">
<g filter="url(#filter0_d)">
<path d="M83.26 26.43L78.76 41H75.7L72.96 31.97C72.9067 31.83 72.8567 31.6767 72.81 31.51C72.7633 31.3367 72.7167 31.1567 72.67 30.97C72.6233 31.1567 72.5767 31.3367 72.53 31.51C72.4833 31.6767 72.4333 31.83 72.38 31.97L69.6 41H66.54L62.04 26.43H64.88C65.1733 26.43 65.4167 26.4967 65.61 26.63C65.81 26.7633 65.94 26.94 66 27.16L68 34.76C68.06 35 68.12 35.2633 68.18 35.55C68.24 35.83 68.3 36.1233 68.36 36.43C68.48 35.8033 68.6267 35.2467 68.8 34.76L71.16 27.16C71.22 26.9733 71.3467 26.8067 71.54 26.66C71.74 26.5067 71.98 26.43 72.26 26.43H73.26C73.5533 26.43 73.79 26.5 73.97 26.64C74.15 26.7733 74.2867 26.9467 74.38 27.16L76.72 34.76C76.8933 35.2267 77.04 35.7567 77.16 36.35C77.2133 36.05 77.2667 35.77 77.32 35.51C77.38 35.2433 77.44 34.9933 77.5 34.76L79.5 27.16C79.5533 26.9667 79.68 26.7967 79.88 26.65C80.08 26.5033 80.32 26.43 80.6 26.43H83.26ZM89.5 34.57C89.5 34.3233 89.4667 34.0833 89.4 33.85C89.34 33.6167 89.2367 33.41 89.09 33.23C88.95 33.0433 88.7633 32.8933 88.53 32.78C88.2967 32.6667 88.0133 32.61 87.68 32.61C87.0933 32.61 86.6333 32.78 86.3 33.12C85.9667 33.4533 85.7467 33.9367 85.64 34.57H89.5ZM85.6 36.37C85.7 37.2367 85.9633 37.8667 86.39 38.26C86.8167 38.6467 87.3667 38.84 88.04 38.84C88.4 38.84 88.71 38.7967 88.97 38.71C89.23 38.6233 89.46 38.5267 89.66 38.42C89.8667 38.3133 90.0533 38.2167 90.22 38.13C90.3933 38.0433 90.5733 38 90.76 38C91.0067 38 91.1933 38.09 91.32 38.27L92.22 39.38C91.9 39.7467 91.5533 40.0467 91.18 40.28C90.8133 40.5067 90.4333 40.6867 90.04 40.82C89.6533 40.9467 89.2633 41.0333 88.87 41.08C88.4833 41.1333 88.1133 41.16 87.76 41.16C87.0333 41.16 86.35 41.0433 85.71 40.81C85.0767 40.57 84.52 40.2167 84.04 39.75C83.5667 39.2833 83.19 38.7033 82.91 38.01C82.6367 37.3167 82.5 36.51 82.5 35.59C82.5 34.8967 82.6167 34.24 82.85 33.62C83.09 33 83.43 32.4567 83.87 31.99C84.3167 31.5233 84.8533 31.1533 85.48 30.88C86.1133 30.6067 86.8267 30.47 87.62 30.47C88.3067 30.47 88.9333 30.5767 89.5 30.79C90.0733 31.0033 90.5633 31.3133 90.97 31.72C91.3833 32.1267 91.7033 32.6267 91.93 33.22C92.1633 33.8067 92.28 34.4733 92.28 35.22C92.28 35.4533 92.27 35.6433 92.25 35.79C92.23 35.9367 92.1933 36.0533 92.14 36.14C92.0867 36.2267 92.0133 36.2867 91.92 36.32C91.8333 36.3533 91.72 36.37 91.58 36.37H85.6ZM99.1813 36.78C98.5613 36.8067 98.0513 36.86 97.6513 36.94C97.2513 37.02 96.9346 37.12 96.7013 37.24C96.4679 37.36 96.3046 37.4967 96.2113 37.65C96.1246 37.8033 96.0813 37.97 96.0813 38.15C96.0813 38.5033 96.1779 38.7533 96.3713 38.9C96.5646 39.04 96.8479 39.11 97.2213 39.11C97.6213 39.11 97.9713 39.04 98.2713 38.9C98.5713 38.76 98.8746 38.5333 99.1813 38.22V36.78ZM93.6013 32.07C94.2279 31.5167 94.9213 31.1067 95.6813 30.84C96.4479 30.5667 97.2679 30.43 98.1413 30.43C98.7679 30.43 99.3313 30.5333 99.8313 30.74C100.338 30.94 100.765 31.2233 101.111 31.59C101.465 31.95 101.735 32.38 101.921 32.88C102.108 33.38 102.201 33.9267 102.201 34.52V41H100.781C100.488 41 100.265 40.96 100.111 40.88C99.9646 40.8 99.8413 40.6333 99.7413 40.38L99.5213 39.81C99.2613 40.03 99.0113 40.2233 98.7713 40.39C98.5313 40.5567 98.2813 40.7 98.0213 40.82C97.7679 40.9333 97.4946 41.0167 97.2013 41.07C96.9146 41.13 96.5946 41.16 96.2413 41.16C95.7679 41.16 95.3379 41.1 94.9513 40.98C94.5646 40.8533 94.2346 40.67 93.9613 40.43C93.6946 40.19 93.4879 39.8933 93.3413 39.54C93.1946 39.18 93.1213 38.7667 93.1213 38.3C93.1213 37.9267 93.2146 37.55 93.4013 37.17C93.5879 36.7833 93.9113 36.4333 94.3713 36.12C94.8313 35.8 95.4513 35.5333 96.2313 35.32C97.0113 35.1067 97.9946 34.9867 99.1813 34.96V34.52C99.1813 33.9133 99.0546 33.4767 98.8013 33.21C98.5546 32.9367 98.2013 32.8 97.7413 32.8C97.3746 32.8 97.0746 32.84 96.8413 32.92C96.6079 33 96.3979 33.09 96.2113 33.19C96.0313 33.29 95.8546 33.38 95.6813 33.46C95.5079 33.54 95.3013 33.58 95.0613 33.58C94.8479 33.58 94.6679 33.5267 94.5213 33.42C94.3746 33.3133 94.2546 33.1867 94.1613 33.04L93.6013 32.07ZM107.737 41.16C107.243 41.16 106.807 41.09 106.427 40.95C106.053 40.8033 105.737 40.6 105.477 40.34C105.223 40.0733 105.03 39.7533 104.897 39.38C104.763 39.0067 104.697 38.59 104.697 38.13V32.77H103.817C103.657 32.77 103.52 32.72 103.407 32.62C103.293 32.5133 103.237 32.36 103.237 32.16V30.95L104.887 30.63L105.497 28.1C105.577 27.78 105.803 27.62 106.177 27.62H107.797V30.65H110.367V32.77H107.797V37.92C107.797 38.16 107.853 38.36 107.967 38.52C108.087 38.6733 108.257 38.75 108.477 38.75C108.59 38.75 108.683 38.74 108.757 38.72C108.837 38.6933 108.903 38.6667 108.957 38.64C109.017 38.6067 109.07 38.58 109.117 38.56C109.17 38.5333 109.23 38.52 109.297 38.52C109.39 38.52 109.463 38.5433 109.517 38.59C109.577 38.63 109.637 38.6967 109.697 38.79L110.637 40.26C110.237 40.56 109.787 40.7867 109.287 40.94C108.787 41.0867 108.27 41.16 107.737 41.16ZM114.802 31.54C115.176 31.22 115.579 30.9633 116.012 30.77C116.452 30.57 116.976 30.47 117.582 30.47C118.149 30.47 118.649 30.57 119.082 30.77C119.522 30.9633 119.892 31.2367 120.192 31.59C120.492 31.9367 120.719 32.3533 120.872 32.84C121.026 33.32 121.102 33.8433 121.102 34.41V41H118.002V34.41C118.002 33.9033 117.886 33.51 117.652 33.23C117.419 32.9433 117.076 32.8 116.622 32.8C116.282 32.8 115.962 32.8733 115.662 33.02C115.369 33.16 115.082 33.3533 114.802 33.6V41H111.702V26.03H114.802V31.54ZM129.559 34.57C129.559 34.3233 129.525 34.0833 129.459 33.85C129.399 33.6167 129.295 33.41 129.149 33.23C129.009 33.0433 128.822 32.8933 128.589 32.78C128.355 32.6667 128.072 32.61 127.739 32.61C127.152 32.61 126.692 32.78 126.359 33.12C126.025 33.4533 125.805 33.9367 125.699 34.57H129.559ZM125.659 36.37C125.759 37.2367 126.022 37.8667 126.449 38.26C126.875 38.6467 127.425 38.84 128.099 38.84C128.459 38.84 128.769 38.7967 129.029 38.71C129.289 38.6233 129.519 38.5267 129.719 38.42C129.925 38.3133 130.112 38.2167 130.279 38.13C130.452 38.0433 130.632 38 130.819 38C131.065 38 131.252 38.09 131.379 38.27L132.279 39.38C131.959 39.7467 131.612 40.0467 131.239 40.28C130.872 40.5067 130.492 40.6867 130.099 40.82C129.712 40.9467 129.322 41.0333 128.929 41.08C128.542 41.1333 128.172 41.16 127.819 41.16C127.092 41.16 126.409 41.0433 125.769 40.81C125.135 40.57 124.579 40.2167 124.099 39.75C123.625 39.2833 123.249 38.7033 122.969 38.01C122.695 37.3167 122.559 36.51 122.559 35.59C122.559 34.8967 122.675 34.24 122.909 33.62C123.149 33 123.489 32.4567 123.929 31.99C124.375 31.5233 124.912 31.1533 125.539 30.88C126.172 30.6067 126.885 30.47 127.679 30.47C128.365 30.47 128.992 30.5767 129.559 30.79C130.132 31.0033 130.622 31.3133 131.029 31.72C131.442 32.1267 131.762 32.6267 131.989 33.22C132.222 33.8067 132.339 34.4733 132.339 35.22C132.339 35.4533 132.329 35.6433 132.309 35.79C132.289 35.9367 132.252 36.0533 132.199 36.14C132.145 36.2267 132.072 36.2867 131.979 36.32C131.892 36.3533 131.779 36.37 131.639 36.37H125.659ZM136.79 32.23C137.11 31.67 137.477 31.23 137.89 30.91C138.31 30.59 138.79 30.43 139.33 30.43C139.797 30.43 140.177 30.54 140.47 30.76L140.27 33.04C140.237 33.1867 140.18 33.2867 140.1 33.34C140.027 33.3933 139.923 33.42 139.79 33.42C139.737 33.42 139.667 33.4167 139.58 33.41C139.493 33.4033 139.403 33.3967 139.31 33.39C139.217 33.3767 139.12 33.3667 139.02 33.36C138.927 33.3467 138.84 33.34 138.76 33.34C138.307 33.34 137.943 33.46 137.67 33.7C137.403 33.94 137.177 34.2733 136.99 34.7V41H133.89V30.63H135.73C135.883 30.63 136.01 30.6433 136.11 30.67C136.217 30.6967 136.303 30.74 136.37 30.8C136.443 30.8533 136.497 30.9267 136.53 31.02C136.57 31.1133 136.603 31.2267 136.63 31.36L136.79 32.23Z" fill="white"/>
<path d="M62 46.1H140.47V47.08H62V46.1Z" fill="white"/>
</g>
<g filter="url(#filter1_d)">
<path d="M26.3311 50.415C24.7523 50.415 23.4339 50.293 22.376 50.0488C20.9111 49.7396 19.8369 49.2594 19.1533 48.6084C17.6234 45.3695 16.3132 41.8213 15.2227 37.9639C13.709 32.6253 12.6511 27.1159 12.0488 21.4355C12.7813 20.3613 13.7822 19.5312 15.0518 18.9453C16.3213 18.3431 17.7373 18.042 19.2998 18.042C21.6436 18.042 23.4828 18.4896 24.8174 19.3848C26.1683 20.2799 26.8438 21.5576 26.8438 23.2178C26.7298 24.4548 26.624 26.2695 26.5264 28.6621C26.445 31.0547 26.4043 33.2194 26.4043 35.1562C26.4043 35.6934 26.4531 36.1165 26.5508 36.4258C26.6647 36.7188 26.8926 36.8652 27.2344 36.8652C27.3646 36.8652 27.5274 36.8408 27.7227 36.792C27.7064 36.6455 27.6983 36.4014 27.6983 36.0596V35.2051C27.6983 32.8451 27.7796 30.127 27.9424 27.0508C28.1052 23.9583 28.3005 21.6553 28.5283 20.1416C30.0095 19.2301 31.751 18.7744 33.7529 18.7744C35.7549 18.7744 37.3662 19.0511 38.5869 19.6045C40.0518 20.2881 40.8249 21.2891 40.9063 22.6074C40.8249 24.2025 40.6703 25.7731 40.4424 27.3193C40.2308 28.8656 39.9704 30.6478 39.6611 32.666C39.3519 34.6842 39.1566 36.0189 39.0752 36.6699C39.2054 36.735 39.3763 36.7676 39.5879 36.7676C39.7995 36.7676 39.9948 36.6862 40.1738 36.5234C40.3529 36.3607 40.4994 35.9701 40.6133 35.3516C41.1179 32.7474 41.5329 30.0049 41.8584 27.124C42.1839 24.2269 42.3955 21.7041 42.4932 19.5557C43.9906 18.5465 46.0576 18.042 48.6944 18.042C50.8265 18.042 52.5274 18.6117 53.7969 19.751C55.0664 20.874 55.7012 22.3877 55.7012 24.292C55.7012 25.5615 55.099 28.89 53.8945 34.2773C53.2761 37.1094 52.682 39.5345 52.1123 41.5527C51.5427 43.5547 51.0788 44.9626 50.7207 45.7764C49.972 47.4202 48.849 48.6084 47.3516 49.3408C45.8705 50.057 43.9743 50.415 41.6631 50.415C40.7354 50.415 39.6611 50.2767 38.4404 50C37.236 49.7233 36.3164 49.4141 35.6817 49.0723C35.3561 48.5677 34.9899 47.8027 34.583 46.7773C34.1761 45.752 33.9238 44.9788 33.8262 44.458C33.1914 44.4743 32.874 44.8161 32.874 45.4834C32.874 46.0042 33.1263 46.9645 33.6309 48.3643C31.9219 49.7314 29.4886 50.415 26.3311 50.415Z" fill="#009EF6"/>
<path d="M22.376 50.0488L22.6009 49.0744L22.5917 49.0723L22.5826 49.0704L22.376 50.0488ZM19.1533 48.6084L18.2491 49.0355L18.3287 49.204L18.4637 49.3325L19.1533 48.6084ZM15.2227 37.9639L16.185 37.6918L16.1847 37.6911L15.2227 37.9639ZM12.0488 21.4355L11.2226 20.8722L11.0157 21.1757L11.0544 21.541L12.0488 21.4355ZM15.0518 18.9453L15.4709 19.8533L15.4804 19.8488L15.0518 18.9453ZM24.8174 19.3848L24.2604 20.2153L24.265 20.2184L24.8174 19.3848ZM26.8438 23.2178L27.8396 23.3095L27.8438 23.2637V23.2178H26.8438ZM26.5264 28.6621L25.5272 28.6213L25.527 28.6281L26.5264 28.6621ZM26.5508 36.4258L25.5972 36.7269L25.607 36.7579L25.6188 36.7882L26.5508 36.4258ZM27.7227 36.792L27.9652 37.7621L28.8131 37.5502L28.7166 36.6816L27.7227 36.792ZM27.9424 27.0508L28.941 27.1036L28.941 27.1033L27.9424 27.0508ZM28.5283 20.1416L28.0042 19.2899L27.6086 19.5334L27.5395 19.9927L28.5283 20.1416ZM38.5869 19.6045L39.0098 18.6983L38.9998 18.6937L38.5869 19.6045ZM40.9063 22.6074L41.905 22.6584L41.9078 22.6021L41.9044 22.5458L40.9063 22.6074ZM40.4424 27.3193L39.453 27.1735L39.4516 27.1838L40.4424 27.3193ZM39.6611 32.666L38.6727 32.5146L39.6611 32.666ZM39.0752 36.6699L38.0829 36.5459L37.9952 37.2479L38.628 37.5643L39.0752 36.6699ZM40.6133 35.3516L39.6315 35.1613L39.6298 35.1704L40.6133 35.3516ZM41.8584 27.124L42.8521 27.2363L42.8522 27.2357L41.8584 27.124ZM42.4932 19.5557L41.9343 18.7264L41.5171 19.0076L41.4942 19.5103L42.4932 19.5557ZM53.7969 19.751L53.129 20.4952L53.1343 20.5L53.7969 19.751ZM53.8945 34.2773L52.9186 34.0592L52.9176 34.064L53.8945 34.2773ZM52.1123 41.5527L53.0741 41.8264L53.0747 41.8244L52.1123 41.5527ZM50.7207 45.7764L51.6309 46.1909L51.636 46.1791L50.7207 45.7764ZM47.3516 49.3408L47.7869 50.2411L47.791 50.2391L47.3516 49.3408ZM38.4404 50L38.2165 50.9746L38.2194 50.9753L38.4404 50ZM35.6817 49.0723L34.8414 49.6144L34.9809 49.8307L35.2076 49.9527L35.6817 49.0723ZM33.8262 44.458L34.8091 44.2737L34.6521 43.4365L33.8006 43.4583L33.8262 44.458ZM33.6309 48.3643L34.2556 49.1451L34.8142 48.6982L34.5716 48.0252L33.6309 48.3643ZM26.3311 49.415C24.7971 49.415 23.5601 49.2958 22.6009 49.0744L22.1511 51.0232C23.3078 51.2901 24.7075 51.415 26.3311 51.415V49.415ZM22.5826 49.0704C21.2024 48.779 20.3352 48.353 19.843 47.8843L18.4637 49.3325C19.3387 50.1659 20.6199 50.7001 22.1694 51.0273L22.5826 49.0704ZM20.0575 48.1813C18.5538 44.9978 17.2622 41.5022 16.185 37.6918L14.2604 38.2359C15.3642 42.1404 16.693 45.7411 18.2491 49.0355L20.0575 48.1813ZM16.1847 37.6911C14.6871 32.4089 13.6397 26.9555 13.0433 21.3301L11.0544 21.541C11.6625 27.2763 12.7309 32.8418 14.2606 38.2367L16.1847 37.6911ZM12.8751 21.9989C13.4978 21.0856 14.3529 20.3693 15.4708 19.8533L14.6327 18.0374C13.2116 18.6932 12.0647 19.6371 11.2226 20.8722L12.8751 21.9989ZM15.4804 19.8488C16.6016 19.3169 17.8688 19.042 19.2998 19.042V17.042C17.6058 17.042 16.041 17.3693 14.6232 18.0418L15.4804 19.8488ZM19.2998 19.042C21.5315 19.042 23.1499 19.4705 24.2604 20.2153L25.3744 18.5543C23.8156 17.5087 21.7556 17.042 19.2998 17.042V19.042ZM24.265 20.2184C25.3283 20.9229 25.8438 21.8831 25.8438 23.2178H27.8438C27.8438 21.2321 27.0083 19.637 25.3698 18.5512L24.265 20.2184ZM25.848 23.1261C25.7317 24.389 25.6251 26.2242 25.5272 28.6213L27.5256 28.7029C27.623 26.3148 27.728 24.5205 27.8396 23.3095L25.848 23.1261ZM25.527 28.6281C25.4453 31.0295 25.4043 33.2058 25.4043 35.1562H27.4043C27.4043 33.233 27.4447 31.0799 27.5258 28.6961L25.527 28.6281ZM25.4043 35.1562C25.4043 35.7378 25.4552 36.2773 25.5972 36.7269L27.5044 36.1246C27.451 35.9557 27.4043 35.6489 27.4043 35.1562H25.4043ZM25.6188 36.7882C25.7396 37.0989 25.9473 37.3914 26.2664 37.5965C26.579 37.7975 26.9217 37.8652 27.2344 37.8652V35.8652C27.2053 35.8652 27.2631 35.8597 27.3479 35.9142C27.4391 35.9728 27.4759 36.0456 27.4828 36.0633L25.6188 36.7882ZM27.2344 37.8652C27.478 37.8652 27.7287 37.8213 27.9652 37.7621L27.4801 35.8218C27.3261 35.8604 27.2512 35.8652 27.2344 35.8652V37.8652ZM28.7166 36.6816C28.707 36.5951 28.6983 36.3997 28.6983 36.0596H26.6983C26.6983 36.403 26.7058 36.6959 26.7288 36.9024L28.7166 36.6816ZM28.6983 36.0596V35.2051H26.6983V36.0596H28.6983ZM28.6983 35.2051C28.6983 32.867 28.7789 30.1672 28.941 27.1036L26.9438 26.9979C26.7804 30.0867 26.6983 32.8231 26.6983 35.2051H28.6983ZM28.941 27.1033C29.1034 24.0176 29.2968 21.7542 29.5172 20.2905L27.5395 19.9927C27.3041 21.5563 27.1069 23.8991 26.9438 26.9982L28.941 27.1033ZM29.0524 20.9933C30.3533 20.1927 31.9075 19.7744 33.7529 19.7744V17.7744C31.5945 17.7744 29.6656 18.2676 28.0042 19.2899L29.0524 20.9933ZM33.7529 19.7744C35.6766 19.7744 37.1309 20.0424 38.174 20.5153L38.9998 18.6937C37.6016 18.0598 35.8332 17.7744 33.7529 17.7744V19.7744ZM38.164 20.5107C39.3851 21.0805 39.8548 21.8041 39.9082 22.669L41.9044 22.5458C41.795 20.774 40.7185 19.4957 39.0098 18.6983L38.164 20.5107ZM39.9076 22.5565C39.8278 24.1205 39.6762 25.6594 39.4531 27.1735L41.4317 27.4651C41.6643 25.8868 41.822 24.2845 41.905 22.6584L39.9076 22.5565ZM39.4516 27.1838C39.2409 28.7234 38.9813 30.5001 38.6727 32.5146L40.6496 32.8175C40.9594 30.7955 41.2207 29.0078 41.4332 27.4549L39.4516 27.1838ZM38.6727 32.5146C38.3638 34.5301 38.1663 35.8787 38.0829 36.5459L40.0675 36.794C40.1468 36.1591 40.34 34.8384 40.6496 32.8175L38.6727 32.5146ZM38.628 37.5643C38.9455 37.7231 39.2863 37.7676 39.5879 37.7676V35.7676C39.532 35.7676 39.5004 35.7632 39.4882 35.7608C39.476 35.7585 39.4911 35.7598 39.5224 35.7755L38.628 37.5643ZM39.5879 37.7676C40.084 37.7676 40.5117 37.5678 40.8465 37.2634L39.5012 35.7835C39.4845 35.7987 39.4863 35.7927 39.5085 35.7835C39.5192 35.779 39.5324 35.7747 39.5474 35.7717C39.5624 35.7687 39.5763 35.7676 39.5879 35.7676V37.7676ZM40.8465 37.2634C41.11 37.0239 41.2603 36.7103 41.3543 36.4595C41.4558 36.1889 41.5339 35.8739 41.5967 35.5327L39.6298 35.1704C39.5788 35.4477 39.5266 35.6373 39.4817 35.7573C39.4596 35.816 39.4444 35.8444 39.4401 35.8516C39.4348 35.8606 39.4517 35.8285 39.5012 35.7835L40.8465 37.2634ZM41.595 35.5418C42.105 32.9096 42.5239 30.1409 42.8521 27.2363L40.8647 27.0117C40.5419 29.8689 40.1307 32.5852 39.6316 35.1613L41.595 35.5418ZM42.8522 27.2357C43.1794 24.3237 43.3932 21.7778 43.4921 19.6011L41.4942 19.5103C41.3978 21.6304 41.1885 24.1301 40.8647 27.0124L42.8522 27.2357ZM43.052 20.3849C44.3245 19.5274 46.1698 19.042 48.6944 19.042V17.042C45.9455 17.042 43.6567 17.5657 41.9343 18.7264L43.052 20.3849ZM48.6944 19.042C50.644 19.042 52.0856 19.5588 53.129 20.4952L54.4648 19.0067C52.9691 17.6645 51.009 17.042 48.6944 17.042V19.042ZM53.1343 20.5C54.1614 21.4086 54.7012 22.6348 54.7012 24.292H56.7012C56.7012 22.1406 55.9714 20.3395 54.4595 19.002L53.1343 20.5ZM54.7012 24.292C54.7012 24.8249 54.5679 25.8911 54.2655 27.5624C53.9679 29.2076 53.5195 31.3716 52.9186 34.0592L54.8705 34.4955C55.474 31.7957 55.929 29.6019 56.2336 27.9185C56.5334 26.2614 56.7012 25.0286 56.7012 24.292H54.7012ZM52.9176 34.064C52.3019 36.8832 51.7125 39.2878 51.1499 41.2811L53.0747 41.8244C53.6514 39.7812 54.2502 37.3355 54.8715 34.4907L52.9176 34.064ZM51.1505 41.279C50.5813 43.2795 50.1332 44.6287 49.8054 45.3736L51.636 46.1791C52.0244 45.2964 52.5041 43.8298 53.0741 41.8264L51.1505 41.279ZM49.8107 45.3619C49.1494 46.8137 48.1834 47.8207 46.9122 48.4425L47.791 50.2391C49.5145 49.3961 50.7946 48.0268 51.6308 46.1908L49.8107 45.3619ZM46.9163 48.4405C45.6143 49.07 43.8807 49.415 41.6631 49.415V51.415C44.0679 51.415 46.1266 51.0439 47.7869 50.2411L46.9163 48.4405ZM41.6631 49.415C40.8304 49.415 39.833 49.2903 38.6615 49.0247L38.2194 50.9753C39.4892 51.2631 40.6403 51.415 41.6631 51.415V49.415ZM38.6643 49.0254C37.4945 48.7566 36.6752 48.4715 36.1558 48.1918L35.2076 49.9527C35.9576 50.3566 36.9775 50.69 38.2165 50.9746L38.6643 49.0254ZM36.522 48.5301C36.2496 48.108 35.9118 47.4146 35.5125 46.4085L33.6535 47.1462C34.0681 48.1908 34.4627 49.0274 34.8414 49.6144L36.522 48.5301ZM35.5125 46.4085C35.1096 45.3932 34.888 44.6947 34.8091 44.2737L32.8433 44.6423C32.9597 45.263 33.2426 46.1107 33.6535 47.1462L35.5125 46.4085ZM33.8006 43.4583C33.3142 43.4708 32.7796 43.615 32.3793 44.0461C31.9872 44.4684 31.874 45.0056 31.874 45.4834H33.874C33.874 45.4393 33.8767 45.4061 33.8799 45.3826C33.8831 45.3591 33.8865 45.347 33.8875 45.344C33.8884 45.3412 33.8866 45.3477 33.8795 45.3603C33.8722 45.3732 33.8609 45.3897 33.8449 45.407C33.8287 45.4244 33.8113 45.4387 33.7947 45.4496C33.7784 45.4604 33.7663 45.4655 33.7616 45.4673C33.7573 45.4689 33.7613 45.4669 33.7762 45.4643C33.7912 45.4616 33.8159 45.4586 33.8518 45.4577L33.8006 43.4583ZM31.874 45.4834C31.874 45.8752 31.964 46.3457 32.0961 46.8483C32.2325 47.3675 32.4322 47.9878 32.6901 48.7034L34.5716 48.0252C34.325 47.3409 34.1463 46.7812 34.0304 46.3401C33.9102 45.8825 33.874 45.6124 33.874 45.4834H31.874ZM33.0062 47.5834C31.5382 48.7578 29.3593 49.415 26.3311 49.415V51.415C29.6179 51.415 32.3056 50.7051 34.2556 49.1451L33.0062 47.5834Z" fill="white"/>
</g>
<g filter="url(#filter2_d)">
<circle cx="55.5" cy="11.5" r="2.5" stroke="white" stroke-width="2"/>
</g>
<path d="M19.4968 28.8007L20.7617 28.7514L20.8598 28.1482C20.9811 26.9604 21.6178 25.8491 22.6526 25.019C23.6875 24.1888 25.0509 23.6955 26.4921 23.6299L26.5504 23.6276C27.9993 23.5825 29.4191 23.9754 30.5436 24.7327C31.4243 24.7433 32.2989 24.8576 33.1407 25.0724C32.4158 24.1717 31.4233 23.4394 30.2582 22.9456C29.0931 22.4518 27.7945 22.2131 26.4865 22.2523L26.4116 22.2552C24.6864 22.3255 23.0413 22.875 21.7428 23.8147C20.4444 24.7543 19.5688 26.0291 19.2581 27.4322C18.2242 27.4969 17.2388 27.8192 16.432 28.3566C15.6253 28.894 15.0352 29.621 14.7399 30.4417C14.4445 31.2624 14.4577 32.1381 14.7777 32.9531C15.0977 33.7681 15.7095 34.484 16.5322 35.0062C16.5956 34.4697 16.753 33.9438 16.9996 33.4448C16.5356 32.9765 16.265 32.398 16.2273 31.794C16.1831 31.0392 16.502 30.3009 17.1144 29.7402C17.7269 29.1795 18.5833 28.8417 19.4968 28.8007V28.8007Z" fill="white"/>
<path d="M25.5535 32.655L26.8184 32.6057L26.8484 31.9776C26.9684 30.7827 27.6099 29.665 28.6535 28.8323C29.6971 27.9996 31.0718 27.5087 32.5219 27.4508L32.5802 27.4485C33.5055 27.4205 34.4263 27.5705 35.2699 27.8867C36.1136 28.203 36.8568 28.6768 37.441 29.2707C38.2255 29.336 38.9966 29.4843 39.7355 29.7118C39.0958 28.5879 38.0704 27.6439 36.7868 26.9969C35.5033 26.35 34.0182 26.0288 32.5163 26.0732L32.4414 26.0761C30.7151 26.1468 29.0691 26.6973 27.7706 27.6383C26.4721 28.5794 25.5973 29.8556 25.2883 31.2599C24.2335 31.3209 23.2278 31.6499 22.409 32.2019C21.5903 32.7538 20.9987 33.5017 20.7154 34.3428C20.432 35.184 20.4709 36.0773 20.8265 36.9001C21.1822 37.723 21.8373 38.4351 22.7019 38.9388C22.8181 38.4528 23.0121 37.9819 23.2789 37.5385C22.7888 37.1534 22.4464 36.6581 22.2941 36.114C22.1419 35.5699 22.1865 35.001 22.4224 34.478C22.6584 33.9551 23.0753 33.5011 23.6213 33.1725C24.1673 32.8439 24.8184 32.6552 25.4937 32.6298L25.5535 32.655Z" fill="white"/>
<path d="M47.343 37.1372L47.318 36.7111C47.2518 35.1516 46.489 33.6669 45.1769 32.5431C43.8647 31.4193 42.0959 30.7359 40.2114 30.6245C38.3268 30.5131 36.4599 30.9817 34.9703 31.94C33.4807 32.8982 32.4739 34.2783 32.1438 35.8143C30.8225 35.9236 29.6046 36.4517 28.7459 37.2877C27.8873 38.1237 27.4548 39.2024 27.5394 40.2971C27.6241 41.3918 28.2192 42.4173 29.1997 43.1581C30.1802 43.8989 31.4697 44.2972 32.7973 44.2694L46.5448 43.7336C47.5122 43.6926 48.4296 43.3676 49.1319 42.8173C49.8342 42.2669 50.2751 41.5273 50.3754 40.7316C50.4757 39.9359 50.2286 39.1365 49.6788 38.4773C49.129 37.8181 48.3124 37.3424 47.3763 37.1359L47.343 37.1372ZM46.4644 42.359L32.7169 42.8947C31.7987 42.9305 30.9006 42.6635 30.2199 42.1526C29.5393 41.6417 29.132 40.9286 29.0876 40.1703C29.0432 39.4119 29.3653 38.6704 29.9832 38.1089C30.601 37.5473 31.4639 37.2118 32.382 37.176L33.6469 37.1267L33.7034 36.5251C33.8235 35.3302 34.465 34.2125 35.5086 33.3798C36.5522 32.5472 37.9269 32.0562 39.377 31.9983L39.4352 31.9961C41.0202 31.9506 42.5634 32.4248 43.7281 33.3151C44.8927 34.2054 45.5844 35.4396 45.6521 36.7484L45.7004 37.5732L45.6868 38.3385L46.4735 38.3836C47.1117 38.3852 47.7234 38.5962 48.1739 38.9701C48.6244 39.344 48.8768 39.8502 48.8756 40.3774C48.8744 40.9045 48.6196 41.4095 48.1674 41.7811C47.7153 42.1527 47.1026 42.3606 46.4644 42.359V42.359Z" fill="white"/>
<defs>
<filter id="filter0_d" x="58" y="26.03" width="86.4698" height="29.05" filterUnits="userSpaceOnUse" color-interpolation-filters="sRGB">
<feFlood flood-opacity="0" result="BackgroundImageFix"/>
<feColorMatrix in="SourceAlpha" type="matrix" values="0 0 0 0 0 0 0 0 0 0 0 0 0 0 0 0 0 0 127 0"/>
<feOffset dy="4"/>
<feGaussianBlur stdDeviation="2"/>
<feColorMatrix type="matrix" values="0 0 0 0 0 0 0 0 0 0 0 0 0 0 0 0 0 0 0.25 0"/>
<feBlend mode="normal" in2="BackgroundImageFix" result="effect1_dropShadow"/>
<feBlend mode="normal" in="SourceGraphic" in2="effect1_dropShadow" result="shape"/>
</filter>
<filter id="filter1_d" x="7.01569" y="17.042" width="53.6855" height="42.373" filterUnits="userSpaceOnUse" color-interpolation-filters="sRGB">
<feFlood flood-opacity="0" result="BackgroundImageFix"/>
<feColorMatrix in="SourceAlpha" type="matrix" values="0 0 0 0 0 0 0 0 0 0 0 0 0 0 0 0 0 0 127 0"/>
<feOffset dy="4"/>
<feGaussianBlur stdDeviation="2"/>
<feColorMatrix type="matrix" values="0 0 0 0 0 0 0 0 0 0 0 0 0 0 0 0 0 0 0.25 0"/>
<feBlend mode="normal" in2="BackgroundImageFix" result="effect1_dropShadow"/>
<feBlend mode="normal" in="SourceGraphic" in2="effect1_dropShadow" result="shape"/>
</filter>
<filter id="filter2_d" x="48" y="8" width="15" height="15" filterUnits="userSpaceOnUse" color-interpolation-filters="sRGB">
<feFlood flood-opacity="0" result="BackgroundImageFix"/>
<feColorMatrix in="SourceAlpha" type="matrix" values="0 0 0 0 0 0 0 0 0 0 0 0 0 0 0 0 0 0 127 0"/>
<feOffset dy="4"/>
<feGaussianBlur stdDeviation="2"/>
<feColorMatrix type="matrix" values="0 0 0 0 0 0 0 0 0 0 0 0 0 0 0 0 0 0 0.25 0"/>
<feBlend mode="normal" in2="BackgroundImageFix" result="effect1_dropShadow"/>
<feBlend mode="normal" in="SourceGraphic" in2="effect1_dropShadow" result="shape"/>
</filter>
</defs>
</svg>
